<svg xmlns="http://www.w3.org/2000/svg" xmlns:xlink="http://www.w3.org/1999/xlink" width="1920" zoomAndPan="magnify" viewBox="0 0 1440 809.999993" height="1080" preserveAspectRatio="xMidYMid meet" version="1.0"><defs><clipPath id="1b50bc8bf9"><path d="M 412.421875 97.421875 L 898 97.421875 L 898 712.421875 L 412.421875 712.421875 Z M 412.421875 97.421875 " clip-rule="nonzero"/></clipPath><clipPath id="b065086742"><path d="M 412.421875 421 L 704 421 L 704 712.421875 L 412.421875 712.421875 Z M 412.421875 421 " clip-rule="nonzero"/></clipPath><clipPath id="27c3342920"><path d="M 930 226 L 1027.421875 226 L 1027.421875 648 L 930 648 Z M 930 226 " clip-rule="nonzero"/></clipPath></defs><rect x="-144" width="1728" fill="#ffffff" y="-80.999999" height="971.999992" fill-opacity="1"/><rect x="-144" width="1728" fill="#fbfbfb" y="-80.999999" height="971.999992" fill-opacity="1"/><g clip-path="url(#1b50bc8bf9)"><path fill="#000000" d="M 796.101562 102.160156 C 793.066406 99.128906 788.949219 97.421875 784.65625 97.421875 L 460.972656 97.421875 C 434.199219 97.421875 412.421875 119.199219 412.421875 145.972656 L 412.421875 372.550781 C 412.421875 381.496094 419.667969 388.734375 428.605469 388.734375 C 437.542969 388.734375 444.789062 381.496094 444.789062 372.550781 L 444.789062 145.972656 C 444.789062 137.042969 452.050781 129.789062 460.972656 129.789062 L 768.472656 129.789062 L 768.472656 210.710938 C 768.472656 219.65625 775.71875 226.894531 784.65625 226.894531 L 865.578125 226.894531 L 865.578125 663.867188 C 865.578125 672.796875 858.316406 680.050781 849.394531 680.050781 L 752.289062 680.050781 C 743.351562 680.050781 736.105469 687.289062 736.105469 696.234375 C 736.105469 705.179688 743.351562 712.421875 752.289062 712.421875 L 849.394531 712.421875 C 876.167969 712.421875 897.945312 690.640625 897.945312 663.867188 L 897.945312 210.710938 C 897.945312 206.410156 896.238281 202.300781 893.203125 199.265625 Z M 800.839844 152.675781 L 842.691406 194.527344 L 800.839844 194.527344 Z M 800.839844 152.675781 " fill-opacity="1" fill-rule="nonzero"/></g><g clip-path="url(#b065086742)"><path fill="#000000" d="M 687.550781 680.050781 L 460.972656 680.050781 C 452.050781 680.050781 444.789062 672.796875 444.789062 663.867188 L 444.789062 437.289062 C 444.789062 428.34375 437.542969 421.105469 428.605469 421.105469 C 419.667969 421.105469 412.421875 428.34375 412.421875 437.289062 L 412.421875 663.867188 C 412.421875 690.640625 434.199219 712.421875 460.972656 712.421875 L 687.550781 712.421875 C 696.488281 712.421875 703.734375 705.179688 703.734375 696.234375 C 703.734375 687.289062 696.488281 680.050781 687.550781 680.050781 Z M 687.550781 680.050781 " fill-opacity="1" fill-rule="nonzero"/></g><path fill="#000000" d="M 765.984375 602.941406 C 765.984375 602.941406 798.628906 546.886719 798.644531 546.863281 C 803.121094 539.179688 800.378906 529.082031 792.695312 524.671875 C 784.402344 519.933594 779.457031 511.460938 779.457031 502.027344 C 779.457031 492.589844 784.402344 484.121094 792.691406 479.378906 C 800.355469 474.992188 803.078125 464.792969 798.644531 457.1875 L 765.984375 401.109375 C 761.503906 393.414062 751.671875 390.820312 743.953125 395.199219 C 735.542969 400.019531 725.523438 399.988281 717.128906 395.136719 C 708.929688 390.378906 704.027344 381.941406 704.027344 372.550781 C 704.027344 363.605469 696.78125 356.367188 687.84375 356.367188 L 622.523438 356.367188 C 613.585938 356.367188 606.339844 363.605469 606.339844 372.550781 C 606.339844 381.941406 601.4375 390.378906 593.234375 395.136719 C 584.84375 399.988281 574.824219 400.019531 566.414062 395.199219 C 558.703125 390.839844 548.871094 393.429688 544.382812 401.109375 C 544.382812 401.109375 511.734375 457.167969 511.722656 457.1875 C 507.246094 464.871094 509.980469 474.960938 517.671875 479.378906 C 525.960938 484.117188 530.910156 492.589844 530.910156 502.027344 C 530.910156 511.460938 525.964844 519.929688 517.675781 524.671875 C 510.003906 529.058594 507.28125 539.242188 511.722656 546.863281 L 544.382812 602.941406 C 548.871094 610.636719 558.6875 613.210938 566.414062 608.851562 C 574.824219 604.03125 584.84375 604.0625 593.234375 608.914062 C 601.4375 613.671875 606.339844 622.109375 606.339844 631.5 C 606.339844 640.445312 613.585938 647.683594 622.523438 647.683594 L 687.84375 647.683594 C 696.78125 647.683594 704.027344 640.445312 704.027344 631.5 C 704.027344 622.109375 708.929688 613.671875 717.128906 608.914062 C 725.523438 604.0625 735.542969 604.03125 743.953125 608.851562 C 751.6875 613.230469 761.503906 610.636719 765.984375 602.941406 Z M 700.898438 580.921875 C 687.441406 588.714844 677.972656 600.996094 673.894531 615.316406 L 636.46875 615.316406 C 632.394531 600.996094 622.925781 588.714844 609.46875 580.921875 C 595.78125 572.988281 580.09375 570.855469 565.363281 574.648438 L 546.777344 542.738281 C 557.304688 532.007812 563.277344 517.625 563.277344 502.027344 C 563.277344 486.425781 557.304688 472.042969 546.777344 461.3125 L 565.363281 429.402344 C 580.09375 433.195312 595.773438 431.078125 609.46875 423.128906 C 622.925781 415.335938 632.394531 403.054688 636.46875 388.734375 L 673.894531 388.734375 C 677.972656 403.054688 687.441406 415.335938 700.898438 423.128906 C 714.585938 431.0625 730.257812 433.195312 745.003906 429.402344 L 763.589844 461.3125 C 753.0625 472.042969 747.089844 486.425781 747.089844 502.027344 C 747.089844 517.625 753.0625 532.007812 763.589844 542.738281 L 745.003906 574.648438 C 730.289062 570.886719 714.609375 572.988281 700.898438 580.921875 Z M 700.898438 580.921875 " fill-opacity="1" fill-rule="nonzero"/><path fill="#000000" d="M 655.183594 437.289062 C 619.488281 437.289062 590.445312 466.320312 590.445312 502.027344 C 590.445312 537.730469 619.488281 566.761719 655.183594 566.761719 C 690.878906 566.761719 719.921875 537.730469 719.921875 502.027344 C 719.921875 466.320312 690.878906 437.289062 655.183594 437.289062 Z M 655.183594 534.394531 C 637.332031 534.394531 622.816406 519.867188 622.816406 502.027344 C 622.816406 484.183594 637.332031 469.65625 655.183594 469.65625 C 673.035156 469.65625 687.550781 484.183594 687.550781 502.027344 C 687.550781 519.867188 673.035156 534.394531 655.183594 534.394531 Z M 655.183594 534.394531 " fill-opacity="1" fill-rule="nonzero"/><g clip-path="url(#27c3342920)"><path fill="#000000" d="M 978.867188 226.894531 C 952.09375 226.894531 930.316406 248.671875 930.316406 275.445312 L 930.316406 566.761719 C 930.316406 569.273438 930.898438 571.757812 932.023438 574 L 964.390625 638.738281 C 967.132812 644.222656 972.734375 647.683594 978.867188 647.683594 C 985 647.683594 990.601562 644.222656 993.34375 638.738281 L 1025.714844 574 C 1026.835938 571.757812 1027.421875 569.273438 1027.421875 566.761719 L 1027.421875 275.445312 C 1027.421875 248.671875 1005.640625 226.894531 978.867188 226.894531 Z M 978.867188 259.261719 C 987.789062 259.261719 995.050781 266.515625 995.050781 275.445312 L 995.050781 291.628906 L 962.683594 291.628906 L 962.683594 275.445312 C 962.683594 266.515625 969.945312 259.261719 978.867188 259.261719 Z M 978.867188 595.304688 L 962.683594 562.9375 L 962.683594 324 L 995.050781 324 L 995.050781 562.9375 Z M 978.867188 595.304688 " fill-opacity="1" fill-rule="nonzero"/></g><path fill="#000000" d="M 509.527344 178.339844 C 509.527344 178.871094 509.5 179.398438 509.449219 179.925781 C 509.394531 180.457031 509.316406 180.980469 509.214844 181.5 C 509.109375 182.019531 508.980469 182.53125 508.828125 183.039062 C 508.675781 183.546875 508.496094 184.042969 508.292969 184.535156 C 508.089844 185.023438 507.863281 185.503906 507.613281 185.96875 C 507.363281 186.4375 507.09375 186.890625 506.796875 187.332031 C 506.503906 187.773438 506.1875 188.199219 505.851562 188.609375 C 505.515625 189.019531 505.160156 189.410156 504.785156 189.785156 C 504.410156 190.160156 504.019531 190.515625 503.609375 190.851562 C 503.199219 191.1875 502.773438 191.503906 502.332031 191.796875 C 501.890625 192.09375 501.4375 192.363281 500.96875 192.613281 C 500.503906 192.863281 500.023438 193.089844 499.535156 193.292969 C 499.042969 193.496094 498.546875 193.675781 498.039062 193.828125 C 497.53125 193.980469 497.019531 194.109375 496.5 194.214844 C 495.980469 194.316406 495.453125 194.394531 494.925781 194.449219 C 494.398438 194.5 493.871094 194.527344 493.339844 194.527344 C 492.8125 194.527344 492.28125 194.5 491.753906 194.449219 C 491.226562 194.394531 490.703125 194.316406 490.183594 194.214844 C 489.664062 194.109375 489.152344 193.980469 488.644531 193.828125 C 488.136719 193.675781 487.636719 193.496094 487.148438 193.292969 C 486.65625 193.089844 486.179688 192.863281 485.710938 192.613281 C 485.246094 192.363281 484.789062 192.09375 484.351562 191.796875 C 483.910156 191.503906 483.484375 191.1875 483.074219 190.851562 C 482.664062 190.515625 482.273438 190.160156 481.898438 189.785156 C 481.523438 189.410156 481.167969 189.019531 480.832031 188.609375 C 480.496094 188.199219 480.179688 187.773438 479.882812 187.332031 C 479.589844 186.890625 479.316406 186.4375 479.066406 185.96875 C 478.816406 185.503906 478.589844 185.023438 478.390625 184.535156 C 478.1875 184.042969 478.007812 183.546875 477.855469 183.039062 C 477.699219 182.53125 477.570312 182.019531 477.46875 181.5 C 477.363281 180.980469 477.285156 180.457031 477.234375 179.925781 C 477.183594 179.398438 477.15625 178.871094 477.15625 178.339844 C 477.15625 177.8125 477.183594 177.28125 477.234375 176.753906 C 477.285156 176.226562 477.363281 175.703125 477.46875 175.183594 C 477.570312 174.664062 477.699219 174.152344 477.855469 173.644531 C 478.007812 173.136719 478.1875 172.636719 478.390625 172.148438 C 478.589844 171.65625 478.816406 171.179688 479.066406 170.710938 C 479.316406 170.246094 479.589844 169.789062 479.882812 169.351562 C 480.179688 168.910156 480.496094 168.484375 480.832031 168.074219 C 481.167969 167.664062 481.523438 167.273438 481.898438 166.898438 C 482.273438 166.523438 482.664062 166.167969 483.074219 165.832031 C 483.484375 165.496094 483.910156 165.179688 484.351562 164.882812 C 484.789062 164.589844 485.246094 164.316406 485.710938 164.066406 C 486.179688 163.816406 486.65625 163.59375 487.148438 163.390625 C 487.636719 163.1875 488.136719 163.007812 488.644531 162.855469 C 489.152344 162.699219 489.664062 162.570312 490.183594 162.46875 C 490.703125 162.363281 491.226562 162.285156 491.753906 162.234375 C 492.28125 162.183594 492.8125 162.15625 493.339844 162.15625 C 493.871094 162.15625 494.398438 162.183594 494.925781 162.234375 C 495.453125 162.285156 495.980469 162.363281 496.5 162.46875 C 497.019531 162.570312 497.53125 162.699219 498.039062 162.855469 C 498.546875 163.007812 499.042969 163.1875 499.535156 163.390625 C 500.023438 163.59375 500.503906 163.816406 500.96875 164.066406 C 501.4375 164.316406 501.890625 164.589844 502.332031 164.882812 C 502.773438 165.179688 503.199219 165.496094 503.609375 165.832031 C 504.019531 166.167969 504.410156 166.523438 504.785156 166.898438 C 505.160156 167.273438 505.515625 167.664062 505.851562 168.074219 C 506.1875 168.484375 506.503906 168.910156 506.796875 169.351562 C 507.09375 169.789062 507.363281 170.246094 507.613281 170.710938 C 507.863281 171.179688 508.089844 171.65625 508.292969 172.148438 C 508.496094 172.636719 508.675781 173.136719 508.828125 173.644531 C 508.980469 174.152344 509.109375 174.664062 509.214844 175.183594 C 509.316406 175.703125 509.394531 176.226562 509.449219 176.753906 C 509.5 177.28125 509.527344 177.8125 509.527344 178.339844 Z M 509.527344 178.339844 " fill-opacity="1" fill-rule="nonzero"/><path fill="#000000" d="M 558.078125 194.527344 L 719.921875 194.527344 C 728.859375 194.527344 736.105469 187.285156 736.105469 178.339844 C 736.105469 169.394531 728.859375 162.15625 719.921875 162.15625 L 558.078125 162.15625 C 549.140625 162.15625 541.894531 169.394531 541.894531 178.339844 C 541.894531 187.285156 549.140625 194.527344 558.078125 194.527344 Z M 558.078125 194.527344 " fill-opacity="1" fill-rule="nonzero"/><path fill="#000000" d="M 509.527344 243.078125 C 509.527344 243.609375 509.5 244.136719 509.449219 244.664062 C 509.394531 245.191406 509.316406 245.714844 509.214844 246.234375 C 509.109375 246.753906 508.980469 247.269531 508.828125 247.777344 C 508.675781 248.285156 508.496094 248.78125 508.292969 249.269531 C 508.089844 249.761719 507.863281 250.238281 507.613281 250.707031 C 507.363281 251.175781 507.09375 251.628906 506.796875 252.070312 C 506.503906 252.511719 506.1875 252.933594 505.851562 253.34375 C 505.515625 253.753906 505.160156 254.148438 504.785156 254.523438 C 504.410156 254.898438 504.019531 255.253906 503.609375 255.589844 C 503.199219 255.925781 502.773438 256.238281 502.332031 256.535156 C 501.890625 256.828125 501.4375 257.101562 500.96875 257.351562 C 500.503906 257.601562 500.023438 257.828125 499.535156 258.03125 C 499.042969 258.234375 498.546875 258.410156 498.039062 258.566406 C 497.53125 258.71875 497.019531 258.847656 496.5 258.953125 C 495.980469 259.054688 495.453125 259.132812 494.925781 259.183594 C 494.398438 259.234375 493.871094 259.261719 493.339844 259.261719 C 492.8125 259.261719 492.28125 259.234375 491.753906 259.183594 C 491.226562 259.132812 490.703125 259.054688 490.183594 258.953125 C 489.664062 258.847656 489.152344 258.71875 488.644531 258.566406 C 488.136719 258.410156 487.636719 258.234375 487.148438 258.03125 C 486.65625 257.828125 486.179688 257.601562 485.710938 257.351562 C 485.246094 257.101562 484.789062 256.828125 484.351562 256.535156 C 483.910156 256.242188 483.484375 255.925781 483.074219 255.589844 C 482.664062 255.253906 482.273438 254.898438 481.898438 254.523438 C 481.523438 254.148438 481.167969 253.753906 480.832031 253.34375 C 480.496094 252.933594 480.179688 252.511719 479.882812 252.070312 C 479.589844 251.628906 479.316406 251.175781 479.066406 250.707031 C 478.816406 250.238281 478.589844 249.761719 478.390625 249.269531 C 478.1875 248.78125 478.007812 248.285156 477.855469 247.777344 C 477.699219 247.269531 477.570312 246.753906 477.46875 246.234375 C 477.363281 245.714844 477.285156 245.191406 477.234375 244.664062 C 477.183594 244.136719 477.15625 243.609375 477.15625 243.078125 C 477.15625 242.546875 477.183594 242.019531 477.234375 241.492188 C 477.285156 240.964844 477.363281 240.441406 477.46875 239.921875 C 477.570312 239.402344 477.699219 238.886719 477.855469 238.378906 C 478.007812 237.871094 478.1875 237.375 478.390625 236.882812 C 478.589844 236.394531 478.816406 235.917969 479.066406 235.449219 C 479.316406 234.980469 479.589844 234.527344 479.882812 234.085938 C 480.179688 233.644531 480.496094 233.21875 480.832031 232.8125 C 481.167969 232.402344 481.523438 232.007812 481.898438 231.632812 C 482.273438 231.257812 482.664062 230.902344 483.074219 230.566406 C 483.484375 230.230469 483.910156 229.914062 484.351562 229.621094 C 484.789062 229.328125 485.246094 229.054688 485.710938 228.804688 C 486.179688 228.554688 486.65625 228.328125 487.148438 228.125 C 487.636719 227.921875 488.136719 227.746094 488.644531 227.589844 C 489.152344 227.4375 489.664062 227.308594 490.183594 227.203125 C 490.703125 227.101562 491.226562 227.023438 491.753906 226.972656 C 492.28125 226.917969 492.8125 226.894531 493.339844 226.894531 C 493.871094 226.894531 494.398438 226.917969 494.925781 226.972656 C 495.453125 227.023438 495.980469 227.101562 496.5 227.203125 C 497.019531 227.308594 497.53125 227.4375 498.039062 227.589844 C 498.546875 227.746094 499.042969 227.921875 499.535156 228.125 C 500.023438 228.328125 500.503906 228.554688 500.96875 228.804688 C 501.4375 229.054688 501.890625 229.328125 502.332031 229.621094 C 502.773438 229.914062 503.199219 230.230469 503.609375 230.566406 C 504.019531 230.902344 504.410156 231.257812 504.785156 231.632812 C 505.160156 232.007812 505.515625 232.402344 505.851562 232.8125 C 506.1875 233.21875 506.503906 233.644531 506.796875 234.085938 C 507.09375 234.527344 507.363281 234.980469 507.613281 235.449219 C 507.863281 235.917969 508.089844 236.394531 508.292969 236.882812 C 508.496094 237.375 508.675781 237.871094 508.828125 238.378906 C 508.980469 238.886719 509.109375 239.402344 509.214844 239.921875 C 509.316406 240.441406 509.394531 240.964844 509.449219 241.492188 C 509.5 242.019531 509.527344 242.546875 509.527344 243.078125 Z M 509.527344 243.078125 " fill-opacity="1" fill-rule="nonzero"/><path fill="#000000" d="M 558.078125 259.261719 L 719.921875 259.261719 C 728.859375 259.261719 736.105469 252.023438 736.105469 243.078125 C 736.105469 234.132812 728.859375 226.894531 719.921875 226.894531 L 558.078125 226.894531 C 549.140625 226.894531 541.894531 234.132812 541.894531 243.078125 C 541.894531 252.023438 549.140625 259.261719 558.078125 259.261719 Z M 558.078125 259.261719 " fill-opacity="1" fill-rule="nonzero"/><path fill="#000000" d="M 509.527344 307.816406 C 509.527344 308.34375 509.5 308.875 509.449219 309.402344 C 509.394531 309.929688 509.316406 310.453125 509.214844 310.972656 C 509.109375 311.492188 508.980469 312.003906 508.828125 312.511719 C 508.675781 313.019531 508.496094 313.519531 508.292969 314.007812 C 508.089844 314.496094 507.863281 314.976562 507.613281 315.445312 C 507.363281 315.910156 507.09375 316.367188 506.796875 316.804688 C 506.503906 317.246094 506.1875 317.671875 505.851562 318.082031 C 505.515625 318.492188 505.160156 318.882812 504.785156 319.257812 C 504.410156 319.632812 504.019531 319.988281 503.609375 320.324219 C 503.199219 320.660156 502.773438 320.976562 502.332031 321.273438 C 501.890625 321.566406 501.4375 321.839844 500.96875 322.089844 C 500.503906 322.339844 500.023438 322.5625 499.535156 322.765625 C 499.042969 322.96875 498.546875 323.148438 498.039062 323.300781 C 497.53125 323.457031 497.019531 323.585938 496.5 323.6875 C 495.980469 323.792969 495.453125 323.871094 494.925781 323.921875 C 494.398438 323.972656 493.871094 324 493.339844 324 C 492.8125 324 492.28125 323.972656 491.753906 323.921875 C 491.226562 323.871094 490.703125 323.792969 490.183594 323.6875 C 489.664062 323.585938 489.152344 323.457031 488.644531 323.300781 C 488.136719 323.148438 487.636719 322.96875 487.148438 322.765625 C 486.65625 322.5625 486.179688 322.339844 485.710938 322.089844 C 485.246094 321.839844 484.789062 321.566406 484.351562 321.273438 C 483.910156 320.976562 483.484375 320.660156 483.074219 320.324219 C 482.664062 319.988281 482.273438 319.632812 481.898438 319.257812 C 481.523438 318.882812 481.167969 318.492188 480.832031 318.082031 C 480.496094 317.671875 480.179688 317.246094 479.882812 316.804688 C 479.589844 316.367188 479.316406 315.910156 479.066406 315.445312 C 478.816406 314.976562 478.589844 314.496094 478.390625 314.007812 C 478.1875 313.519531 478.007812 313.019531 477.855469 312.511719 C 477.699219 312.003906 477.570312 311.492188 477.46875 310.972656 C 477.363281 310.453125 477.285156 309.929688 477.234375 309.402344 C 477.183594 308.875 477.15625 308.34375 477.15625 307.816406 C 477.15625 307.285156 477.183594 306.757812 477.234375 306.230469 C 477.285156 305.699219 477.363281 305.175781 477.46875 304.65625 C 477.570312 304.136719 477.699219 303.625 477.855469 303.117188 C 478.007812 302.609375 478.1875 302.109375 478.390625 301.621094 C 478.589844 301.132812 478.816406 300.652344 479.066406 300.1875 C 479.316406 299.71875 479.589844 299.265625 479.882812 298.824219 C 480.179688 298.382812 480.496094 297.957031 480.832031 297.546875 C 481.167969 297.136719 481.523438 296.746094 481.898438 296.371094 C 482.273438 295.996094 482.664062 295.640625 483.074219 295.304688 C 483.484375 294.96875 483.910156 294.652344 484.351562 294.359375 C 484.789062 294.0625 485.246094 293.792969 485.710938 293.542969 C 486.179688 293.292969 486.65625 293.066406 487.148438 292.863281 C 487.636719 292.660156 488.136719 292.480469 488.644531 292.328125 C 489.152344 292.171875 489.664062 292.046875 490.183594 291.941406 C 490.703125 291.839844 491.226562 291.761719 491.753906 291.707031 C 492.28125 291.65625 492.8125 291.628906 493.339844 291.628906 C 493.871094 291.628906 494.398438 291.65625 494.925781 291.707031 C 495.453125 291.761719 495.980469 291.839844 496.5 291.941406 C 497.019531 292.046875 497.53125 292.171875 498.039062 292.328125 C 498.546875 292.480469 499.042969 292.660156 499.535156 292.863281 C 500.023438 293.066406 500.503906 293.292969 500.96875 293.542969 C 501.4375 293.792969 501.890625 294.0625 502.332031 294.359375 C 502.773438 294.652344 503.199219 294.96875 503.609375 295.304688 C 504.019531 295.640625 504.410156 295.996094 504.785156 296.371094 C 505.160156 296.746094 505.515625 297.136719 505.851562 297.546875 C 506.1875 297.957031 506.503906 298.382812 506.796875 298.824219 C 507.09375 299.265625 507.363281 299.71875 507.613281 300.1875 C 507.863281 300.652344 508.089844 301.132812 508.292969 301.621094 C 508.496094 302.109375 508.675781 302.609375 508.828125 303.117188 C 508.980469 303.625 509.109375 304.136719 509.214844 304.65625 C 509.316406 305.175781 509.394531 305.699219 509.449219 306.230469 C 509.5 306.757812 509.527344 307.285156 509.527344 307.816406 Z M 509.527344 307.816406 " fill-opacity="1" fill-rule="nonzero"/><path fill="#000000" d="M 558.078125 324 L 719.921875 324 C 728.859375 324 736.105469 316.761719 736.105469 307.816406 C 736.105469 298.871094 728.859375 291.628906 719.921875 291.628906 L 558.078125 291.628906 C 549.140625 291.628906 541.894531 298.871094 541.894531 307.816406 C 541.894531 316.761719 549.140625 324 558.078125 324 Z M 558.078125 324 " fill-opacity="1" fill-rule="nonzero"/></svg>